{"title":"Chayanne - Salome (h264/mp4)","uid":7484710,"size":95344387,"categoryP":"video","categoryS":"music_videos","magnet":"?xt=urn:btih:3c03b921bc0a7b7d236dd81d41793fec35dcfee1&amp;dn=Chayanne+-+Salome+%28h264%2Fmp4%29&amp;tr=udp%3A%2F%2Ftracker.openbittorrent.com%3A80&amp;tr=udp%3A%2F%2Fopen.demonii.com%3A1337&amp;tr=udp%3A%2F%2Ftracker.coppersurfer.tk%3A6969&amp;tr=udp%3A%2F%2Fexodus.desync.com%3A6969","seeders":2,"leechers":0,"uploader":"MusicVideos-HQ","files":1,"time":1343543795,"description":"General\n\nFormat                         : MPEG-4\nFormat profile                 : Base Media\nCodec ID                       : isom\nFile size                      : 90.9 MiB\nDuration                       : 4mn 22s\nOverall bit rate mode          : Variable\nOverall bit rate               : 2 909 Kbps\nEncoded date                   : UTC 2012-07-28 06:24:03\nTagged date                    : UTC 2012-07-28 06:24:03\n\nVideo\nID                             : 1\nFormat                         : AVC\nFormat/Info                    : Advanced Video Codec\nFormat profile                 : &lt;a class=&quot;__cf_email__&quot; href=&quot;/cdn-cgi/l/email-protection&quot; data-cfemail=&quot;0149686669414d322f31&quot;&gt;[email&amp;#160;protected]&lt;/a&gt;&lt;script cf-hash='f9e31' type=&quot;text/javascript&quot;&gt;\n/* &lt;![CDATA[ */!function(){try{var t=&quot;currentScript&quot;in document?document.currentScript:function(){for(var t=document.getElementsByTagName(&quot;script&quot;),e=t.length;e--;)if(t[e].getAttribute(&quot;cf-hash&quot;))return t[e]}();if(t&amp;&amp;t.previousSibling){var e,r,n,i,c=t.previousSibling,a=c.getAttribute(&quot;data-cfemail&quot;);if(a){for(e=&quot;&quot;,r=parseInt(a.substr(0,2),16),n=2;a.length-n;n+=2)i=parseInt(a.substr(n,2),16)^r,e+=String.fromCharCode(i);e=document.createTextNode(e),c.parentNode.replaceChild(e,c)}}}catch(u){}}();/* ]]&gt; */&lt;/script&gt;\nFormat settings, CABAC         : Yes\nFormat settings, ReFrames      : 2 frames\nCodec ID                       : avc1\nCodec ID/Info                  : Advanced Video Coding\nDuration                       : 4mn 22s\nBit rate                       : 2 696 Kbps\nMaximum bit rate               : 9 158 Kbps\nWidth                          : 720 pixels\nHeight                         : 480 pixels\nDisplay aspect ratio           : 4:3\nOriginal display aspect ratio  : 4:3\nFrame rate mode                : Constant\nFrame rate                     : 29.970 fps\nStandard                       : NTSC\nColor space                    : YUV\nChroma subsampling             : 4:2:0\nBit depth                      : 8 bits\nScan type                      : Progressive\nBits/(Pixel*Frame)             : 0.260\nStream size                    : 84.7 MiB (93%)\n\n\nAudio\nID                             : 2\nFormat                         : AAC\nFormat/Info                    : Advanced Audio Codec\nFormat profile                 : LC\nCodec ID                       : 40\nDuration                       : 4mn 22s\nBit rate mode                  : Variable\nBit rate                       : 192 Kbps\nMaximum bit rate               : 260 Kbps\nChannel(s)                     : 2 channels\nChannel positions              : Front: L R\nSampling rate                  : 48.0 KHz\nCompression mode               : Lossy\nDelay relative to video        : -667ms\nStream size                    : 6.02 MiB (7%)","torrent":{"xt":"urn:btih:3c03b921bc0a7b7d236dd81d41793fec35dcfee1","amp;dn":"Chayanne+-+Salome+%28h264%2Fmp4%29","amp;tr":["udp%3A%2F%2Ftracker.openbittorrent.com%3A80","udp%3A%2F%2Fopen.demonii.com%3A1337","udp%3A%2F%2Ftracker.coppersurfer.tk%3A6969","udp%3A%2F%2Fexodus.desync.com%3A6969"],"infoHash":"3c03b921bc0a7b7d236dd81d41793fec35dcfee1","infoHashBuffer":{"type":"Buffer","data":[60,3,185,33,188,10,123,125,35,109,216,29,65,121,63,236,53,220,254,225]},"announce":[],"urlList":[]}}